<svg width="80" height="77" viewBox="0 0 80 77" fill="none" xmlns="http://www.w3.org/2000/svg">
<path d="M52.0257 30.3957C52.0257 35.4893 47.8813 39.6203 42.7713 39.6203C37.6613 39.6203 33.5169 35.4893 33.5169 30.3957C33.5169 25.3022 37.6613 21.1711 42.7713 21.1711C47.8813 21.1711 52.0257 25.3022 52.0257 30.3957Z" fill="#EF3D24"/>
<path fill-rule="evenodd" clip-rule="evenodd" d="M37.621 2C16.859 2 0 18.8048 0 39.5C0 60.1952 16.859 77 37.621 77C58.383 77 75.242 60.1952 75.242 39.5C75.242 18.8048 58.383 2 37.621 2ZM37.621 15.3556C50.9795 15.3556 61.8433 26.1845 61.8433 39.5C61.8433 52.8155 50.9795 63.6444 37.621 63.6444C24.2625 63.6444 13.3987 52.8155 13.3987 39.5C13.3987 26.1845 24.2625 15.3556 37.621 15.3556Z" fill="#EF3D24"/>
</svg>
