<svg width="378" height="28" viewBox="0 0 378 28" fill="none" xmlns="http://www.w3.org/2000/svg">
<path d="M0 0.556507H39.3255V7.08699H8.4884V10.715H31.6572C37.8492 10.715 41.5398 13.8309 41.5398 19.0809C41.5398 24.3309 37.8902 27.4467 31.6572 27.4467H0V0.556507ZM8.4884 17.0321V21.1297H30.0989C31.9853 21.1297 32.8464 20.5321 32.8464 19.0809C32.8464 17.6724 31.9853 17.0321 30.0989 17.0321H8.4884Z" fill="#EF3B24"/>
<path d="M46.5019 0.555114H75.1656C83.0799 0.555114 87.7957 4.39658 87.7957 10.8844C87.7957 17.3722 83.1209 21.2136 75.1656 21.2136H55.4003V27.4454H46.5429V0.555114H46.5019ZM55.4003 7.46975V14.299H73.8124C77.2979 14.299 78.8152 13.2746 78.8152 10.9271C78.8152 8.49414 77.2979 7.46975 73.8124 7.46975H55.4003Z" fill="#EF3B24"/>
<path d="M105.469 19.5917L87.0164 0.555114H97.7192L110.718 13.7868L122.282 0.555114H132.739L109.201 27.4454H98.4983L105.469 19.5917Z" fill="#EF3B24"/>
<path d="M154.431 0C167.143 0 174.689 3.15854 176.616 9.17683L167.061 11.1402C165.954 8.2378 162.059 6.91463 154.472 6.91463C144.098 6.91463 139.505 9.04878 139.505 14C139.505 18.9085 144.057 21.0854 154.472 21.0854C162.264 21.0854 166.159 19.7195 167.102 16.689L176.534 18.5671C174.484 24.8415 167.184 28 154.472 28C138.972 28 130.442 23.0061 130.442 14C130.401 4.95122 138.931 0 154.431 0Z" fill="#EF3B24"/>
<path d="M180.676 0.555114H189.533V10.2868H216.639V0.555114H225.496V27.4454H216.639V17.2015H189.533V27.4454H180.676V0.555114Z" fill="#EF3B24"/>
<path d="M232.016 0.555114H240.873V18.8661L267.036 0.555114H275.934V27.4454H267.036V9.0917L240.873 27.4454H232.016V0.555114Z" fill="#EF3B24"/>
<path d="M282.167 0.555114H291.025V11.7807L312.184 0.555114H326.619L302.179 13.1893L327.234 27.4454H311.774L291.025 15.6649V27.4454H282.167V0.555114Z" fill="#EF3B24"/>
<path d="M352.207 7.17097L359.096 16.3905H345.318L352.207 7.17097ZM347.778 0.555114L326.783 27.488H337.075L340.602 22.7929H363.853L367.379 27.488H378L356.923 0.555114H347.778Z" fill="#EF3B24"/>
</svg>
