<svg width="55" height="55" viewBox="0 0 55 55" fill="none" xmlns="http://www.w3.org/2000/svg">
<path d="M55 27.5C55 42.6878 42.6878 55 27.5 55C12.3122 55 0 42.6878 0 27.5C0 12.3122 12.3122 0 27.5 0C42.6878 0 55 12.3122 55 27.5ZM5.5 27.5C5.5 39.6503 15.3497 49.5 27.5 49.5C39.6503 49.5 49.5 39.6503 49.5 27.5C49.5 15.3497 39.6503 5.5 27.5 5.5C15.3497 5.5 5.5 15.3497 5.5 27.5Z" fill="black"/>
<path d="M24.75 38.9583V30.8701H30.25V38.9583H37.125V28.174H41.25L27.5 16.0417L13.75 28.174H17.875V38.9583H24.75Z" fill="black"/>
</svg>
