<svg width="220" height="36" viewBox="0 0 220 36" fill="none" xmlns="http://www.w3.org/2000/svg">
<g clip-path="url(#clip0_15_12)">
<path d="M24.7206 13.6299C24.7206 16.0749 22.7514 18.0577 20.3233 18.0577C17.8952 18.0577 15.926 16.0749 15.926 13.6299C15.926 11.1851 17.8952 9.20213 20.3233 9.20213C22.7514 9.20213 24.7206 11.1851 24.7206 13.6299Z" fill="#EF3D24"/>
<path fill-rule="evenodd" clip-rule="evenodd" d="M17.8761 0C8.01076 0 0 8.0663 0 18C0 27.9337 8.01076 36 17.8761 36C27.7414 36 35.7521 27.9337 35.7521 18C35.7521 8.0663 27.7414 0 17.8761 0ZM17.8761 6.41069C24.2235 6.41069 29.3856 11.6086 29.3856 18C29.3856 24.3914 24.2235 29.5893 17.8761 29.5893C11.5286 29.5893 6.36655 24.3914 6.36655 18C6.36655 11.6086 11.5286 6.41069 17.8761 6.41069Z" fill="#EF3D24"/>
<path d="M126.108 16.0171C125.209 13.3027 121.691 11.8781 115.764 11.8781C108.537 11.8781 104.561 14.1112 104.58 18.1925C104.58 22.2545 108.556 24.5069 115.783 24.5069C121.71 24.5069 125.113 23.0823 126.07 20.2524L121.672 19.4053C121.232 20.7722 119.416 21.3882 115.783 21.3882C110.927 21.3882 108.805 20.4064 108.805 18.1925C108.805 15.9593 110.947 14.9968 115.783 14.9968C119.32 14.9968 121.137 15.5936 121.653 16.9027L126.108 16.0171Z" fill="#EF3D24"/>
<path fill-rule="evenodd" clip-rule="evenodd" d="M62.098 12.1091H43.7629V24.2375H58.5229C61.4285 24.2375 63.1305 22.8321 63.1305 20.4642C63.1305 18.0962 61.4095 16.6909 58.5229 16.6909H47.7205V15.0546H62.098V12.1091ZM47.7205 21.4075V19.5594H57.7963C58.6754 19.5594 59.0769 19.8481 59.0769 20.4834C59.0769 21.1379 58.6754 21.4075 57.7963 21.4075H47.7205Z" fill="#EF3D24"/>
<path fill-rule="evenodd" clip-rule="evenodd" d="M65.4626 12.1091H78.827C82.5166 12.1091 84.7152 13.8417 84.7152 16.7679C84.7152 19.6941 82.5356 21.4267 78.827 21.4267H69.5922V24.2567H65.4626V12.1091ZM69.5922 15.2471V18.3273H78.177C79.802 18.3273 80.5091 17.8653 80.5091 16.8064C80.5091 15.7091 79.802 15.2471 78.177 15.2471H69.5922Z" fill="#EF3D24"/>
<path d="M92.9365 20.6952L84.3332 12.1091H89.3423L95.3835 18.077L100.775 12.1091H105.65L94.6765 24.2567H89.6863L92.9365 20.6952Z" fill="#EF3D24"/>
<path d="M132.13 12.1091H128.001V24.2567H132.13V19.6364H144.768V24.2567H148.897V12.1091H144.768V16.4984H132.13V12.1091Z" fill="#EF3D24"/>
<path d="M156.067 12.1091H151.937V24.2567H156.067L168.264 15.9786V24.2567H172.413V12.1091H168.264L156.067 20.3872V12.1091Z" fill="#EF3D24"/>
<path fill-rule="evenodd" clip-rule="evenodd" d="M179.449 12.1091H175.32V24.2567H179.449V18.9433L189.123 24.2567H200.919L202.563 22.139H213.404L215.048 24.2567H220L210.211 12.1091H205.91L196.185 24.1765L184.649 17.8268L196.044 12.1091H189.315L179.449 17.1722V12.1091ZM207.974 15.1123L211.186 19.2706H204.763L207.974 15.1123Z" fill="#EF3D24"/>
</g>
<defs>
<clipPath id="clip0_15_12">
<rect width="220" height="36" fill="white"/>
</clipPath>
</defs>
</svg>
