<svg width="60" height="60" viewBox="0 0 60 60" fill="none" xmlns="http://www.w3.org/2000/svg">
<path d="M41.4866 22.7166C41.4866 26.7915 38.1818 30.0963 34.107 30.0963C30.0321 30.0963 26.7273 26.7915 26.7273 22.7166C26.7273 18.6417 30.0321 15.3369 34.107 15.3369C38.1818 15.3369 41.4866 18.6417 41.4866 22.7166Z" fill="black"/>
<path fill-rule="evenodd" clip-rule="evenodd" d="M30 0C13.4439 0 0 13.4439 0 30C0 46.5562 13.4439 60 30 60C46.5561 60 60 46.5562 60 30C60 13.4439 46.5561 0 30 0ZM30 10.6845C40.6524 10.6845 49.3155 19.3476 49.3155 30C49.3155 40.6524 40.6524 49.3155 30 49.3155C19.3476 49.3155 10.6845 40.6524 10.6845 30C10.6845 19.3476 19.3476 10.6845 30 10.6845Z" fill="black"/>
</svg>
