<svg width="34" height="34" viewBox="0 0 34 34" fill="none" xmlns="http://www.w3.org/2000/svg">
<path d="M17 30.4583C18.5583 30.4583 19.8333 29.2161 19.8333 27.6977H14.1667C14.1667 29.2161 15.4275 30.4583 17 30.4583ZM25.5 22.1762V15.2746C25.5 11.0369 23.1767 7.48945 19.125 6.55081V5.61218C19.125 4.46649 18.1758 3.54166 17 3.54166C15.8242 3.54166 14.875 4.46649 14.875 5.61218V6.55081C10.8092 7.48945 8.5 11.0231 8.5 15.2746V22.1762H7.73718C6.59366 22.1762 5.66667 23.1033 5.66667 24.2468C5.66667 25.3903 6.59366 26.3173 7.73718 26.3173H26.2629C27.4063 26.3173 28.3333 25.3903 28.3333 24.2468C28.3333 23.1033 27.4063 22.1762 26.2629 22.1762H25.5Z" fill="#14191A"/>
</svg>
