<svg width="20" height="14" viewBox="0 0 20 14" fill="none" xmlns="http://www.w3.org/2000/svg">
<path d="M19.75 7C19.75 7.19891 19.671 7.38968 19.5303 7.53033C19.3897 7.67098 19.1989 7.75 19 7.75H6.811L10.53 11.47C10.6037 11.5387 10.6628 11.6215 10.7038 11.7135C10.7448 11.8055 10.7668 11.9048 10.7686 12.0055C10.7704 12.1062 10.7518 12.2062 10.7141 12.2996C10.6764 12.393 10.6203 12.4778 10.549 12.549C10.4778 12.6203 10.393 12.6764 10.2996 12.7141C10.2062 12.7518 10.1062 12.7704 10.0055 12.7686C9.90478 12.7668 9.80546 12.7448 9.71346 12.7038C9.62146 12.6628 9.53866 12.6037 9.47 12.53L4.47 7.53C4.32979 7.38925 4.25107 7.19867 4.25107 7C4.25107 6.80133 4.32979 6.61075 4.47 6.47L9.47 1.47C9.61218 1.33752 9.80022 1.2654 9.99452 1.26883C10.1888 1.27225 10.3742 1.35097 10.5116 1.48838C10.649 1.62579 10.7277 1.81118 10.7312 2.00548C10.7346 2.19978 10.6625 2.38783 10.53 2.53L6.811 6.25H19C19.1989 6.25 19.3897 6.32902 19.5303 6.46967C19.671 6.61032 19.75 6.80109 19.75 7ZM1 0.25C0.801088 0.25 0.610322 0.329018 0.46967 0.46967C0.329018 0.610322 0.25 0.801088 0.25 1V13C0.25 13.1989 0.329018 13.3897 0.46967 13.5303C0.610322 13.671 0.801088 13.75 1 13.75C1.19891 13.75 1.38968 13.671 1.53033 13.5303C1.67098 13.3897 1.75 13.1989 1.75 13V1C1.75 0.801088 1.67098 0.610322 1.53033 0.46967C1.38968 0.329018 1.19891 0.25 1 0.25Z" fill="white"/>
</svg>
