<svg width="20" height="14" viewBox="0 0 20 14" fill="none" xmlns="http://www.w3.org/2000/svg">
<path d="M15.692 7.287C15.6543 7.37777 15.5993 7.46032 15.53 7.53L10.53 12.53C10.3878 12.6625 10.1998 12.7346 10.0055 12.7312C9.81118 12.7277 9.62579 12.649 9.48838 12.5116C9.35097 12.3742 9.27225 12.1888 9.26882 11.9945C9.2654 11.8002 9.33752 11.6122 9.47 11.47L13.189 7.75H1C0.801088 7.75 0.610322 7.67098 0.46967 7.53033C0.329018 7.38968 0.25 7.19891 0.25 7C0.25 6.80109 0.329018 6.61032 0.46967 6.46967C0.610322 6.32902 0.801088 6.25 1 6.25H13.189L9.47 2.53C9.33752 2.38783 9.2654 2.19978 9.26882 2.00548C9.27225 1.81118 9.35097 1.62579 9.48838 1.48838C9.62579 1.35097 9.81118 1.27225 10.0055 1.26883C10.1998 1.2654 10.3878 1.33752 10.53 1.47L15.53 6.47C15.6346 6.575 15.7058 6.7086 15.7346 6.85398C15.7635 6.99937 15.7486 7.15003 15.692 7.287ZM19 0.25C18.8011 0.25 18.6103 0.329018 18.4697 0.46967C18.329 0.610322 18.25 0.801088 18.25 1V13C18.25 13.1989 18.329 13.3897 18.4697 13.5303C18.6103 13.671 18.8011 13.75 19 13.75C19.1989 13.75 19.3897 13.671 19.5303 13.5303C19.671 13.3897 19.75 13.1989 19.75 13V1C19.75 0.801088 19.671 0.610322 19.5303 0.46967C19.3897 0.329018 19.1989 0.25 19 0.25Z" fill="white"/>
</svg>
