<svg width="24" height="24" viewBox="0 0 24 24" fill="none" xmlns="http://www.w3.org/2000/svg">
<g id="size=24">
<path id="Vector" fill-rule="evenodd" clip-rule="evenodd" d="M7 2.5C6.44772 2.5 6 2.93624 6 3.47436V4.9359H3C1.89543 4.9359 1 5.80837 1 6.88462V19.5513C1 20.6275 1.89543 21.5 3 21.5H21C22.1046 21.5 23 20.6275 23 19.5513V6.88462C23 5.80837 22.1046 4.9359 21 4.9359H18V3.47436C18 2.93624 17.5523 2.5 17 2.5H16C15.4477 2.5 15 2.93624 15 3.47436V4.9359H9V3.47436C9 2.93624 8.55228 2.5 8 2.5H7ZM4.14286 10.8706H19.8571V18.4883H4.14286V10.8706Z" fill="#FFFFFF"/>
</g>
</svg>
